<svg width="80" height="80" viewBox="0 0 80 80" fill="none" xmlns="http://www.w3.org/2000/svg">
<g filter="url(#filter0_d_2096_309)">
<circle cx="30" cy="30" r="30" transform="matrix(-1 0 0 1 70 10)" fill="white"/>
</g>
<path d="M23.9393 43.0607C23.3536 42.4749 23.3536 41.5251 23.9393 40.9393L33.4853 31.3934C34.0711 30.8076 35.0208 30.8076 35.6066 31.3934C36.1924 31.9792 36.1924 32.9289 35.6066 33.5147L27.1213 42L35.6066 50.4853C36.1924 51.0711 36.1924 52.0208 35.6066 52.6066C35.0208 53.1924 34.0711 53.1924 33.4853 52.6066L23.9393 43.0607ZM57 43.5H25V40.5H57V43.5Z" fill="#003A70"/>
<defs>
<filter id="filter0_d_2096_309" x="0" y="0" width="80" height="80" filterUnits="userSpaceOnUse" color-interpolation-filters="sRGB">
<feFlood flood-opacity="0" result="BackgroundImageFix"/>
<feColorMatrix in="SourceAlpha" type="matrix" values="0 0 0 0 0 0 0 0 0 0 0 0 0 0 0 0 0 0 127 0" result="hardAlpha"/>
<feOffset/>
<feGaussianBlur stdDeviation="5"/>
<feComposite in2="hardAlpha" operator="out"/>
<feColorMatrix type="matrix" values="0 0 0 0 0 0 0 0 0 0 0 0 0 0 0 0 0 0 0.15 0"/>
<feBlend mode="normal" in2="BackgroundImageFix" result="effect1_dropShadow_2096_309"/>
<feBlend mode="normal" in="SourceGraphic" in2="effect1_dropShadow_2096_309" result="shape"/>
</filter>
</defs>
</svg>
