<svg width="22" height="16" viewBox="0 0 22 16" fill="none" xmlns="http://www.w3.org/2000/svg">
<path d="M11 0.196289C4.92532 0.196289 0 3.6181 0 7.83844C0 12.0587 4.92532 15.4806 11 15.4806C17.0748 15.4806 22 12.0587 22 7.83844C22 3.6181 17.0748 0.196289 11 0.196289ZM16.8088 11.347L15.928 11.9591C15.7708 12.0681 15.3104 12.1362 15.2956 12.1362C12.5093 12.1531 9.82648 11.3927 7.85532 10.0232C5.87876 8.6492 4.78304 6.77871 4.81247 4.83644C4.81247 4.83555 4.91331 4.52484 5.07042 4.41673L5.95112 3.80477C6.27341 3.57983 6.8925 3.47818 7.32618 3.57898L7.51145 3.62191C7.94387 3.72262 8.39787 4.05479 8.51734 4.36081L8.96037 5.49048C9.07985 5.79738 8.9187 6.23401 8.59651 6.45791L8.00843 6.86653C8.58581 8.35152 10.2629 9.5169 12.4008 9.919L12.9886 9.51029C13.3124 9.28535 13.9406 9.17349 14.3815 9.25636L16.0073 9.56526C16.4478 9.64936 16.9259 9.96279 17.0708 10.2631L17.1326 10.3937C17.2762 10.6941 17.131 11.1241 16.8088 11.347Z" fill="white"/>
</svg>
