<svg width="264" height="45" viewBox="0 0 264 45" fill="none" xmlns="http://www.w3.org/2000/svg">
<path d="M96.0251 9.2173C96.0251 5.77801 94.3742 5.50287 92.1731 5.50287H84.3315C82.1303 5.50287 80.617 5.77801 80.617 9.35487V14.5826C80.617 18.0219 82.1303 18.4346 84.3315 18.4346H92.1731C94.3742 18.4346 95.8875 18.0219 95.8875 14.5826V9.2173H96.0251ZM92.1731 23.7999H84.3315C78.9662 23.7999 74.1512 22.4242 74.1512 15.1329V8.52944C74.2888 1.37572 79.1038 0 84.4691 0H92.1731C97.4008 0 102.353 1.37572 102.353 8.52944V15.1329C102.353 22.4242 97.6759 23.7999 92.1731 23.7999Z" fill="#182877"/>
<path d="M125.603 23.7999H116.661L104.967 0.41272H111.983L121.063 18.9849L130.143 0.41272H137.159L125.603 23.7999Z" fill="#182877"/>
<path d="M161.372 9.2173C161.372 5.77801 159.721 5.36529 157.657 5.36529H149.816C147.614 5.36529 146.101 5.64044 146.101 9.2173V14.445C146.101 17.8843 147.614 18.297 149.816 18.297H157.657C159.858 18.297 161.372 17.8843 161.372 14.445V9.2173ZM157.657 23.7999H149.816C144.45 23.7999 139.635 22.4242 139.635 15.1329V8.52944C139.635 1.23814 144.45 0 149.816 0H157.657C162.885 0 167.837 1.37572 167.837 8.52944V15.1329C167.837 22.4242 163.022 23.7999 157.657 23.7999Z" fill="#182877"/>
<path d="M191.5 9.49245C191.5 6.46587 190.537 5.77801 188.336 5.77801H177.467V18.297H188.336C190.674 18.297 191.5 16.7837 191.5 14.3075V9.49245ZM189.299 23.7999H171.139V0.41272H188.473C194.939 0.41272 197.966 2.88901 197.966 9.49245V14.445C197.966 20.7733 195.902 23.7999 189.299 23.7999Z" fill="#182877"/>
<path d="M222.728 9.2173C222.728 5.77801 221.078 5.36529 219.014 5.36529H211.172C208.971 5.36529 207.458 5.64044 207.458 9.2173V14.445C207.458 17.8843 208.971 18.297 211.172 18.297H219.014C221.215 18.297 222.728 17.8843 222.728 14.445V9.2173ZM219.014 23.7999H211.172C205.807 23.7999 200.992 22.4242 200.992 15.1329V8.52944C200.992 1.23814 205.807 0 211.172 0H219.014C224.242 0 229.194 1.37572 229.194 8.52944V15.1329C229.194 22.4242 224.517 23.7999 219.014 23.7999Z" fill="#182877"/>
<path d="M252.444 23.7999H243.502L231.808 0.275146H238.824L247.904 18.8473L256.984 0.275146H264L252.444 23.7999Z" fill="#182877"/>
<path d="M80.4794 41.2715H77.4528C74.7014 41.2715 74.4262 40.1709 74.4262 37.6946C74.4262 35.4935 74.8389 34.3929 77.1776 34.3929H80.2042C81.8551 34.3929 83.0932 34.5305 83.0932 36.4565V36.5941H82.1302V36.3189C82.1302 35.0808 81.4424 35.0808 80.3418 35.0808H77.3152C75.5268 35.0808 75.5268 35.6311 75.5268 37.8322C75.5268 39.7582 75.5268 40.3085 77.5904 40.3085H80.4794C81.7175 40.3085 82.2678 40.1709 82.2678 38.9328V38.6576H83.2308V39.0703C83.2308 41.1339 81.9927 41.2715 80.4794 41.2715Z" fill="#C9262A"/>
<path d="M88.8713 41.2715C88.321 42.2345 87.2205 44.1605 85.0193 44.1605V43.1975C85.9823 43.1975 87.2205 42.2345 87.7707 41.2715H87.4956L83.9187 34.5305H85.0193L88.1835 40.4461L91.3476 34.5305H92.4482L88.8713 41.2715Z" fill="#C9262A"/>
<path d="M99.1892 35.3559H96.3002C94.5118 35.3559 94.3742 36.0438 94.3742 37.9698C94.3742 40.1709 94.7869 40.5836 96.3002 40.5836H99.1892C100.978 40.5836 100.978 39.7582 100.978 37.9698C100.978 35.7686 100.702 35.3559 99.1892 35.3559ZM99.4643 41.2715H96.5753C95.6123 41.2715 94.7869 41.1339 94.3742 40.3085V41.2715H93.4112V31.6415H94.3742V35.3559C94.6493 34.5305 95.7499 34.3929 96.5753 34.3929H99.4643C101.803 34.3929 102.078 35.7686 102.078 37.8322C102.078 40.0334 101.803 41.2715 99.4643 41.2715Z" fill="#C9262A"/>
<path d="M109.094 35.2183H106.205C104.417 35.2183 104.279 35.6311 104.279 37.2819H110.883C110.883 35.3559 110.608 35.2183 109.094 35.2183ZM109.094 41.2715H106.205C103.591 41.2715 103.179 40.4461 103.179 37.8322C103.179 35.0808 103.729 34.3929 106.205 34.3929H109.094C111.296 34.3929 111.983 34.9432 111.983 37.4195V38.1073H104.279C104.279 40.1709 104.417 40.4461 106.205 40.4461H109.094C110.47 40.4461 110.883 40.3085 110.883 39.3455V39.0703H111.983V39.3455C111.983 41.2715 110.608 41.2715 109.094 41.2715Z" fill="#C9262A"/>
<path d="M120.1 36.8692V36.4565C120.1 35.6311 119.825 35.3559 118.999 35.3559H116.11C114.872 35.3559 114.46 35.9062 114.46 37.1443V41.2715H113.497V34.5305H114.46V35.3559C114.872 34.6681 115.56 34.3929 116.386 34.3929H119.275C120.513 34.3929 121.201 35.0808 121.201 36.3189V36.8692H120.1Z" fill="#C9262A"/>
<path d="M127.942 41.2715H124.915C123.402 41.2715 121.888 41.1339 121.888 39.7582V39.0703H122.989V39.6206C122.989 40.3085 123.402 40.4461 124.915 40.4461H127.942C128.63 40.4461 129.73 40.5836 129.73 39.3455C129.73 38.5201 129.455 38.3825 128.905 38.2449C128.217 38.2449 124.227 38.1073 123.402 37.9698C122.576 37.8322 122.026 37.5571 122.026 36.3189C122.026 34.3929 123.127 34.3929 124.915 34.3929H127.942C129.18 34.3929 130.556 34.3929 130.556 35.9062V36.1813H129.455V35.9062C129.455 35.2183 128.905 35.0808 127.942 35.0808H124.915C123.677 35.0808 122.989 35.0808 122.989 36.0438C122.989 36.8692 123.127 37.1443 123.677 37.1443C124.502 37.2819 127.116 37.2819 128.492 37.2819C129.73 37.2819 130.693 37.4195 130.693 39.2079C130.831 41.2715 129.455 41.2715 127.942 41.2715Z" fill="#C9262A"/>
<path d="M137.847 35.2183H134.958C133.169 35.2183 133.032 35.6311 133.032 37.2819H139.635C139.635 35.3559 139.36 35.2183 137.847 35.2183ZM137.847 41.2715H134.958C132.344 41.2715 131.931 40.4461 131.931 37.8322C131.931 35.0808 132.481 34.3929 134.958 34.3929H137.847C140.048 34.3929 140.736 34.9432 140.736 37.4195V38.1073H133.032C133.032 40.1709 133.169 40.4461 134.958 40.4461H137.847C139.223 40.4461 139.635 40.3085 139.635 39.3455V39.0703H140.736V39.3455C140.736 41.2715 139.36 41.2715 137.847 41.2715Z" fill="#C9262A"/>
<path d="M147.752 41.2715H144.725C141.974 41.2715 141.699 40.1709 141.699 37.6946C141.699 35.4935 142.112 34.3929 144.45 34.3929H147.477C149.128 34.3929 150.366 34.5305 150.366 36.4565V36.5941H149.403V36.3189C149.403 35.0808 148.715 35.0808 147.614 35.0808H144.588C142.799 35.0808 142.799 35.6311 142.799 37.8322C142.799 39.7582 142.937 40.3085 144.863 40.3085H147.752C148.99 40.3085 149.54 40.1709 149.54 38.9328V38.6576H150.503V39.0703C150.641 41.1339 149.403 41.2715 147.752 41.2715Z" fill="#C9262A"/>
<path d="M159.308 41.2715V40.3085C158.895 41.134 158.07 41.2715 157.244 41.2715H154.355C152.567 41.2715 152.017 40.5837 152.017 38.7952V34.5305H152.98V38.7952C152.98 39.8958 153.117 40.4461 154.355 40.4461H157.244C158.62 40.4461 159.446 40.171 159.446 38.6577V34.5305H160.409V41.2715H159.308Z" fill="#C9262A"/>
<path d="M168.388 36.8692V36.4565C168.388 35.6311 168.113 35.3559 167.287 35.3559H164.398C163.16 35.3559 162.747 35.9062 162.747 37.1443V41.2715H161.784V34.5305H162.747V35.3559C163.16 34.6681 163.848 34.3929 164.673 34.3929H167.562C168.8 34.3929 169.488 35.0808 169.488 36.3189V36.8692H168.388Z" fill="#C9262A"/>
<path d="M170.726 41.2715V34.5305H171.689V41.2715H170.726ZM170.726 32.7421V31.6415H171.689V32.7421H170.726Z" fill="#C9262A"/>
<path d="M178.568 41.2715H175.679C174.166 41.2715 173.753 40.8588 173.753 39.2079V35.2184H172.79V34.3929H173.753V32.7421H174.716V34.3929H179.806V35.2184H174.716V39.4831C174.716 40.1709 174.991 40.3085 175.679 40.3085H178.568C179.531 40.3085 179.531 39.7582 179.531 39.2079V38.6576H180.494V39.2079C180.494 40.7212 179.944 41.2715 178.568 41.2715Z" fill="#C9262A"/>
<path d="M185.997 41.2715C185.447 42.2345 184.346 44.1605 182.145 44.1605V43.1975C183.108 43.1975 184.346 42.2345 184.896 41.2715H184.621L181.044 34.5305H182.145L185.309 40.4461L188.473 34.5305H189.574L185.997 41.2715Z" fill="#C9262A"/>
<path d="M13.0693 43.1975H23.3871C23.3871 43.1975 26.001 43.1975 28.0646 42.7848C29.4403 42.5097 30.6784 41.5467 31.9166 40.5837C32.3293 40.171 32.8796 39.8958 33.2923 39.6207C35.631 38.1074 38.3825 38.245 38.7952 38.3825H42.0969C41.6842 38.7952 41.409 39.0704 40.9963 39.4831H38.6576C38.6576 39.4831 36.0437 39.208 33.8426 40.5837C33.4299 40.8588 33.0172 41.134 32.6045 41.5467C31.3663 42.5097 29.9906 43.6103 28.3397 43.8854C26.1386 44.1605 23.3871 44.1605 23.3871 44.1605H15.408C14.5826 43.8854 13.7571 43.4727 13.0693 43.1975Z" fill="#323E8F"/>
<path d="M6.05316 37.6946H21.3236C21.3236 37.6946 23.9375 37.6946 26.0011 37.2819C27.3768 37.0068 28.6149 36.0438 29.8531 35.0808C30.2658 34.6681 30.8161 34.3929 31.2288 34.1178C32.8796 32.7421 36.4565 32.7421 36.7316 32.8796H46.0865C45.9489 33.2924 45.6738 33.5675 45.5362 33.8426H36.7316C36.7316 33.8426 33.2924 33.7051 31.9166 34.9432C31.5039 35.2184 31.0912 35.4935 30.6785 35.9062C29.4403 36.8692 28.0646 37.9698 26.4138 38.2449C24.3502 38.6576 21.5988 38.6576 21.5988 38.6576H7.01616C6.74102 38.3825 6.3283 37.9698 6.05316 37.6946Z" fill="#2F519A"/>
<path d="M2.33875 32.1918H19.2601C19.2601 32.1918 21.8739 32.1918 23.9375 31.7791C25.3132 31.5039 26.5514 30.5409 27.7895 29.5779C28.2022 29.1652 28.7525 28.8901 29.1652 28.6149C31.2288 27.1016 34.2554 27.2392 34.6681 27.3768H48.1501C48.0125 27.7895 48.0125 28.0647 47.875 28.4774H34.6681C34.6681 28.4774 31.6415 28.2022 29.8531 29.5779C29.4404 29.8531 29.0276 30.1282 28.6149 30.5409C27.3768 31.5039 26.0011 32.6045 24.3502 32.8797C22.0115 33.2924 19.2601 33.2924 19.2601 33.2924H2.88903C2.75146 32.8797 2.61389 32.6045 2.33875 32.1918Z" fill="#64548B"/>
<path d="M0.550293 26.6889H17.1965C17.1965 26.6889 19.8103 26.6889 21.8739 26.2762C23.2496 26.001 24.4878 25.038 25.7259 24.075C26.1386 23.6623 26.6889 23.3872 27.1016 23.112C28.8901 21.7363 32.1918 21.8739 32.6045 21.8739H48.8379C48.8379 22.2866 48.8379 22.5617 48.8379 22.9745H32.6045C32.6045 22.9745 29.4403 22.8369 27.7895 24.075C27.3768 24.3502 26.9641 24.6253 26.5513 25.038C25.3132 26.001 23.9375 27.1016 22.2866 27.3767C20.223 27.7895 17.4716 27.7895 17.4716 27.7895H0.687865C0.687865 27.3767 0.550293 27.1016 0.550293 26.6889Z" fill="#784E7F"/>
<path d="M0 21.1861H15.1329C15.1329 21.1861 17.7467 21.1861 19.8103 20.7733C21.186 20.4982 22.4242 19.5352 23.6623 18.5722C24.075 18.1595 24.6253 17.8843 25.038 17.6092C27.1016 16.0959 30.1282 16.2335 30.5409 16.3711H48.4252C48.5628 16.7838 48.5628 17.0589 48.5628 17.4716H30.5409C30.5409 17.4716 27.5143 17.1965 25.7259 18.5722C25.3132 18.8473 24.9005 19.1225 24.4878 19.5352C23.2496 20.4982 21.8739 21.5988 20.223 21.8739C17.8843 22.2866 15.1329 22.2866 15.1329 22.2866H0C0 22.0115 0 21.7363 0 21.4612C0 21.4612 0 21.3236 0 21.1861Z" fill="#893768"/>
<path d="M0.687863 15.8208H13.0693C13.0693 15.8208 15.6832 15.8208 17.7467 15.408C19.1225 15.1329 20.3606 14.1699 21.5988 13.2069C22.0115 12.7942 22.5618 12.519 22.9745 12.2439C25.038 10.8682 28.0646 11.0057 28.4773 11.0057H46.4992C46.6368 11.4185 46.7744 11.6936 46.9119 12.1063H28.3398C28.3398 12.1063 25.4508 11.9687 23.5248 13.2069C23.112 13.482 22.6993 13.7572 22.2866 14.1699C21.0485 15.1329 19.6728 16.2335 18.0219 16.5086C15.9583 16.9213 13.2069 16.9213 13.2069 16.9213H0.41272C0.41272 16.5086 0.550291 16.0959 0.687863 15.8208Z" fill="#9D2957"/>
<path d="M2.61383 10.3179H10.8681C10.8681 10.3179 13.482 10.3179 15.5456 9.90517C16.9213 9.63003 18.1594 8.66702 19.3976 7.70402C19.8103 7.29131 20.3606 7.01616 20.7733 6.74102C22.6993 5.3653 25.8634 5.50288 26.2762 5.50288H42.7847C43.0599 5.77802 43.335 6.19073 43.6102 6.60345L26.1386 6.46588C26.1386 6.46588 23.112 6.32831 21.3236 7.56645C20.9109 7.84159 20.4981 8.11674 20.0854 8.52945C18.8473 9.49245 17.4716 10.593 15.8207 10.8682C13.7571 11.2809 11.0057 11.2809 11.0057 11.2809H2.20111C2.33868 11.0057 2.47625 10.593 2.61383 10.3179Z" fill="#B42443"/>
<path d="M6.60338 4.81502H8.9421C8.9421 4.81502 11.556 4.81502 13.6195 4.4023C14.9953 4.12716 16.2334 3.16416 17.334 2.33873C17.7467 1.92601 18.297 1.65087 18.7097 1.37572C20.4981 8.34465e-06 23.9374 0.13758 24.2126 0.13758H35.9061C36.4564 0.412723 37.1443 0.825438 37.6946 1.23815H24.2126C24.2126 1.23815 20.9108 1.10058 19.3975 2.33873C18.9848 2.61387 18.5721 2.88901 18.1594 3.30173C16.6461 4.12716 15.408 5.09016 13.7571 5.50287C11.6935 5.91559 8.9421 5.91559 8.9421 5.91559H5.64038C5.91552 5.50287 6.19067 5.09016 6.60338 4.81502Z" fill="#C9262A"/>
</svg>
