<svg width="20" height="20" viewBox="0 0 20 20" fill="none" xmlns="http://www.w3.org/2000/svg">
<path fill-rule="evenodd" clip-rule="evenodd" d="M10 0C15.523 0 20 4.47701 20 10C20 15.523 15.523 20 10 20C4.47701 20 0 15.523 0 10C0 4.47701 4.47701 0 10 0ZM8.85725 13.7765L14.7073 7.9265C15.0983 7.5365 15.0983 6.9035 14.7073 6.5125C14.3163 6.1225 13.6842 6.1225 13.2933 6.5125L8.85725 10.9485L6.70725 8.7985C6.31625 8.4075 5.68425 8.4075 5.29325 8.7985C4.90225 9.1895 4.90225 9.8215 5.29325 10.2125L8.85725 13.7765Z" fill="#C9262A"/>
</svg>
