<svg width="22" height="22" viewBox="0 0 22 22" fill="none" xmlns="http://www.w3.org/2000/svg">
<path d="M11 0C4.92532 0 0 4.92532 0 11C0 17.0747 4.92532 22.0001 11 22.0001C17.0748 22.0001 22 17.0746 22 11C22 4.92532 17.0748 0 11 0ZM16.8088 16.0503L15.928 16.9312C15.7708 17.0882 15.3104 17.1862 15.2956 17.1862C12.5093 17.2105 9.82648 16.1161 7.85532 14.1447C5.87876 12.167 4.78304 9.47468 4.81247 6.67898C4.81247 6.67772 4.91331 6.23047 5.07042 6.07486L5.95112 5.19402C6.27341 4.87023 6.8925 4.72392 7.32618 4.86901L7.51145 4.93081C7.94387 5.07577 8.39787 5.55389 8.51734 5.99438L8.96037 7.6204C9.07985 8.06216 8.9187 8.69064 8.59651 9.01292L8.00843 9.60109C8.58581 11.7386 10.2629 13.416 12.4008 13.9948L12.9886 13.4065C13.3124 13.0827 13.9406 12.9217 14.3815 13.041L16.0073 13.4856C16.4478 13.6067 16.9259 14.0578 17.0708 14.4901L17.1326 14.678C17.2762 15.1105 17.131 15.7295 16.8088 16.0503Z" fill="#C9262A"/>
</svg>
